<svg width="140" height="143" viewBox="0 0 140 143" fill="none" xmlns="http://www.w3.org/2000/svg">
<path fill-rule="evenodd" clip-rule="evenodd" d="M138.585 50.1336C133.989 35.6161 124.787 22.992 112.372 14.1736C99.9582 5.35515 85.0081 0.822923 69.7869 1.26346C54.5658 1.704 39.9027 7.09329 28.0193 16.6149C16.1358 26.1366 7.67939 39.2718 3.93088 54.0308C0.182377 68.7898 1.3461 84.3683 7.24578 98.4066C13.1455 112.445 23.4597 124.178 36.6259 131.828C49.7921 139.479 65.093 142.63 80.2107 140.804C95.3284 138.978 109.439 132.275 120.405 121.71H120.436L121.005 121.14C123.756 118.377 125.298 114.636 125.294 110.737C125.29 106.839 123.739 103.101 120.982 100.344C118.226 97.5876 114.488 96.0369 110.589 96.0326C106.691 96.0282 102.949 97.5705 100.187 100.321V100.311C94.5512 105.826 87.4303 109.579 79.6953 111.11C71.9602 112.641 63.9467 111.884 56.6353 108.932C49.3238 105.979 43.0317 100.959 38.529 94.4859C34.0263 88.0129 31.5083 80.3675 31.2833 72.4856C31.0582 64.6037 33.1358 56.8272 37.2618 50.1077C41.3879 43.3883 47.3833 38.0174 54.5144 34.6524C61.6455 31.2874 69.6027 30.0743 77.4125 31.1616C85.2223 32.2488 92.5459 35.5893 98.4867 40.774L100.457 42.7539C101.377 43.6869 101.891 44.9462 101.887 46.2569C101.883 47.5676 101.36 48.8234 100.433 49.7503C99.5064 50.6771 98.2506 51.1997 96.9399 51.2041C95.6291 51.2085 94.3699 50.6942 93.4369 49.7736L90.707 47.0337L90.6071 47.1337C90.5637 47.0118 90.4916 46.9021 90.397 46.8137C85.7619 43.3037 80.2264 41.1801 74.4329 40.6894C68.6395 40.1988 62.8257 41.3612 57.6663 44.0418C52.5069 46.7224 48.2135 50.8112 45.2844 55.8336C42.3553 60.8561 40.9106 66.6062 41.118 72.4167C41.3254 78.2272 43.1764 83.8598 46.4561 88.6606C49.7358 93.4615 54.3097 97.2338 59.6471 99.5397C64.9844 101.846 70.8664 102.591 76.6101 101.688C82.3538 100.786 87.7239 98.2729 92.097 94.4413C92.9203 93.5215 93.3721 92.3283 93.3647 91.0938C93.3573 89.8593 92.8912 88.6716 92.0569 87.7617C90.087 85.6318 86.7172 86.1918 85.0473 87.5617C82.0026 90.0379 78.3228 91.6076 74.4283 92.0917C70.5338 92.5757 66.5817 91.9544 63.0235 90.2988C59.4653 88.6432 56.4446 86.0201 54.3065 82.7292C52.1684 79.4383 50.9992 75.6123 50.9324 71.6884C50.8656 67.7645 51.904 63.901 53.9289 60.5392C55.9537 57.1774 58.8834 54.453 62.3831 52.6773C65.8829 50.9016 69.8116 50.1462 73.7203 50.4974C77.6291 50.8486 81.3602 52.2922 84.4874 54.6633L84.5173 54.6433L86.2872 56.4133C89.0501 59.1638 92.7913 60.7061 96.6899 60.7018C100.588 60.6974 104.326 59.1467 107.083 56.39C109.84 53.6333 111.39 49.8956 111.395 45.997C111.399 42.0983 109.857 38.3572 107.106 35.5943L106.886 35.3743C106.852 35.217 106.776 35.0718 106.666 34.9543C99.5032 28.0999 90.4767 23.5119 80.7175 21.7652C70.9584 20.0186 60.9008 21.1909 51.8051 25.1355C42.7093 29.08 34.9799 35.6211 29.5856 43.9394C24.1913 52.2576 21.3719 61.9828 21.4807 71.8964C21.5894 81.81 24.6215 91.471 30.197 99.6689C35.7726 107.867 43.6436 114.237 52.8237 117.981C62.0038 121.725 72.0846 122.676 81.8031 120.716C91.5215 118.756 100.445 113.971 107.456 106.961C107.471 106.926 107.487 106.893 107.506 106.861C108.409 106.017 109.595 105.541 110.831 105.527C112.066 105.513 113.263 105.962 114.184 106.786C115.106 107.609 115.685 108.748 115.81 109.978C115.934 111.207 115.594 112.439 114.856 113.43C105.725 122.757 93.8074 128.862 80.9027 130.822C67.998 132.782 54.8059 130.492 43.3168 124.297C31.8278 118.102 22.6652 108.339 17.2117 96.4798C11.7582 84.6209 10.3096 71.3101 13.0845 58.5557C15.8594 45.8013 22.7072 34.2955 32.5947 25.7743C42.4822 17.2531 54.873 12.1788 67.8973 11.3172C80.9215 10.4556 93.8727 13.8534 104.797 20.9979C115.72 28.1423 124.024 38.6459 128.455 50.9235C129.185 52.9534 130.895 55.9133 134.385 55.6933C135.06 55.6925 135.726 55.5354 136.33 55.2342C136.934 54.9331 137.46 54.496 137.867 53.9574C138.274 53.4188 138.55 52.7932 138.675 52.1298C138.799 51.4664 138.768 50.7831 138.585 50.1336Z" stroke="white" stroke-width="1.9999" stroke-miterlimit="10" stroke-linecap="round" stroke-linejoin="round"/>
</svg>
